solid unnamed
facet normal 1 -0 0
    outer loop
        vertex 9.8 -9.8 2.2
        vertex 9.8 -9.8 0
        vertex 9.8 9.8 2.2
    endloop
endfacet
facet normal 1 0 0
    outer loop
        vertex 9.8 9.8 2.2
        vertex 9.8 -9.8 0
        vertex 9.8 9.8 0
    endloop
endfacet
facet normal 0 1 0
    outer loop
        vertex 9.8 9.8 2.2
        vertex 9.8 9.8 0
        vertex -9.8 9.8 2.2
    endloop
endfacet
facet normal 0 1 0
    outer loop
        vertex -9.8 9.8 2.2
        vertex 9.8 9.8 0
        vertex -9.8 9.8 0
    endloop
endfacet
facet normal -1 -0 -0
    outer loop
        vertex -9.8 9.8 2.2
        vertex -9.8 9.8 0
        vertex -9.8 -9.8 2.2
    endloop
endfacet
facet normal -1 0 0
    outer loop
        vertex -9.8 -9.8 2.2
        vertex -9.8 9.8 0
        vertex -9.8 -9.8 0
    endloop
endfacet
facet normal 0 -1 0
    outer loop
        vertex -9.8 -9.8 2.2
        vertex -9.8 -9.8 0
        vertex 9.8 -9.8 2.2
    endloop
endfacet
facet normal 0 -1 -0
    outer loop
        vertex 9.8 -9.8 2.2
        vertex -9.8 -9.8 0
        vertex 9.8 -9.8 0
    endloop
endfacet
facet normal 0 0 -1
    outer loop
        vertex -9.8 -9.8 0
        vertex -9.8 9.8 0
        vertex 9.8 -9.8 0
    endloop
endfacet
facet normal 0 0 -1
    outer loop
        vertex -9.8 9.8 0
        vertex 9.8 9.8 0
        vertex 9.8 -9.8 0
    endloop
endfacet
facet normal 0.70710665 0 0.70710683
    outer loop
        vertex 9 9 3
        vertex 9 -9 3
        vertex 9.8 9.8 2.2
    endloop
endfacet
facet normal 0.70710671 0 0.70710695
    outer loop
        vertex 9 -9 3
        vertex 9.8 -9.8 2.2
        vertex 9.8 9.8 2.2
    endloop
endfacet
facet normal -0.70710665 0 0.70710683
    outer loop
        vertex -9 -9 3
        vertex -9 9 3
        vertex -9.8 -9.8 2.2
    endloop
endfacet
facet normal -0.70710671 0 0.70710689
    outer loop
        vertex -9.8 -9.8 2.2
        vertex -9 9 3
        vertex -9.8 9.8 2.2
    endloop
endfacet
facet normal 0 0 1
    outer loop
        vertex 9 9 3
        vertex -9 9 3
        vertex 9 -9 3
    endloop
endfacet
facet normal 0 0 1
    outer loop
        vertex 9 -9 3
        vertex -9 9 3
        vertex -9 -9 3
    endloop
endfacet
facet normal -0 0.70710665 0.70710683
    outer loop
        vertex -9 9 3
        vertex 9 9 3
        vertex -9.8 9.8 2.2
    endloop
endfacet
facet normal 0 0.70710671 0.70710695
    outer loop
        vertex 9 9 3
        vertex 9.8 9.8 2.2
        vertex -9.8 9.8 2.2
    endloop
endfacet
facet normal 0 -0.70710665 0.70710683
    outer loop
        vertex 9 -9 3
        vertex -9 -9 3
        vertex 9.8 -9.8 2.2
    endloop
endfacet
facet normal 0 -0.70710671 0.70710695
    outer loop
        vertex -9 -9 3
        vertex -9.8 -9.8 2.2
        vertex 9.8 -9.8 2.2
    endloop
endfacet
endsolid unnamed
