solid unnamed
facet normal 1 -0 0
    outer loop
        vertex 9.9 -9.9 2.2
        vertex 9.9 -9.9 0
        vertex 9.9 9.9 2.2
    endloop
endfacet
facet normal 1 0 0
    outer loop
        vertex 9.9 9.9 2.2
        vertex 9.9 -9.9 0
        vertex 9.9 9.9 0
    endloop
endfacet
facet normal 0 1 0
    outer loop
        vertex 9.9 9.9 2.2
        vertex 9.9 9.9 0
        vertex -9.9 9.9 2.2
    endloop
endfacet
facet normal 0 1 0
    outer loop
        vertex -9.9 9.9 2.2
        vertex 9.9 9.9 0
        vertex -9.9 9.9 0
    endloop
endfacet
facet normal -1 -0 -0
    outer loop
        vertex -9.9 9.9 2.2
        vertex -9.9 9.9 0
        vertex -9.9 -9.9 2.2
    endloop
endfacet
facet normal -1 0 0
    outer loop
        vertex -9.9 -9.9 2.2
        vertex -9.9 9.9 0
        vertex -9.9 -9.9 0
    endloop
endfacet
facet normal 0 -1 0
    outer loop
        vertex -9.9 -9.9 2.2
        vertex -9.9 -9.9 0
        vertex 9.9 -9.9 2.2
    endloop
endfacet
facet normal 0 -1 -0
    outer loop
        vertex 9.9 -9.9 2.2
        vertex -9.9 -9.9 0
        vertex 9.9 -9.9 0
    endloop
endfacet
facet normal 0 0 -1
    outer loop
        vertex -9.9 -9.9 0
        vertex -9.9 9.9 0
        vertex 9.9 -9.9 0
    endloop
endfacet
facet normal 0 0 -1
    outer loop
        vertex -9.9 9.9 0
        vertex 9.9 9.9 0
        vertex 9.9 -9.9 0
    endloop
endfacet
facet normal 0.70710707 0 0.70710647
    outer loop
        vertex 9.1 9.1 3
        vertex 9.1 -9.1 3
        vertex 9.9 9.9 2.2
    endloop
endfacet
facet normal 0.70710707 0 0.70710647
    outer loop
        vertex 9.1 -9.1 3
        vertex 9.9 -9.9 2.2
        vertex 9.9 9.9 2.2
    endloop
endfacet
facet normal -0.70710707 0 0.70710647
    outer loop
        vertex -9.1 -9.1 3
        vertex -9.1 9.1 3
        vertex -9.9 -9.9 2.2
    endloop
endfacet
facet normal -0.70710707 0 0.70710647
    outer loop
        vertex -9.9 -9.9 2.2
        vertex -9.1 9.1 3
        vertex -9.9 9.9 2.2
    endloop
endfacet
facet normal 0 0 1
    outer loop
        vertex 9.1 9.1 3
        vertex -9.1 9.1 3
        vertex 9.1 -9.1 3
    endloop
endfacet
facet normal 0 0 1
    outer loop
        vertex 9.1 -9.1 3
        vertex -9.1 9.1 3
        vertex -9.1 -9.1 3
    endloop
endfacet
facet normal -0 0.70710707 0.70710647
    outer loop
        vertex -9.1 9.1 3
        vertex 9.1 9.1 3
        vertex -9.9 9.9 2.2
    endloop
endfacet
facet normal 0 0.70710707 0.70710647
    outer loop
        vertex 9.1 9.1 3
        vertex 9.9 9.9 2.2
        vertex -9.9 9.9 2.2
    endloop
endfacet
facet normal 0 -0.70710707 0.70710647
    outer loop
        vertex 9.1 -9.1 3
        vertex -9.1 -9.1 3
        vertex 9.9 -9.9 2.2
    endloop
endfacet
facet normal 0 -0.70710707 0.70710647
    outer loop
        vertex -9.1 -9.1 3
        vertex -9.9 -9.9 2.2
        vertex 9.9 -9.9 2.2
    endloop
endfacet
endsolid unnamed
