solid unnamed
facet normal 1 -0 0
    outer loop
        vertex 20 -20 3
        vertex 20 -20 0
        vertex 20 20 3
    endloop
endfacet
facet normal 1 0 0
    outer loop
        vertex 20 20 3
        vertex 20 -20 0
        vertex 20 20 0
    endloop
endfacet
facet normal 0 1 0
    outer loop
        vertex 20 20 3
        vertex 20 20 0
        vertex -20 20 3
    endloop
endfacet
facet normal 0 1 0
    outer loop
        vertex -20 20 3
        vertex 20 20 0
        vertex -20 20 0
    endloop
endfacet
facet normal -1 -0 -0
    outer loop
        vertex -20 20 3
        vertex -20 20 0
        vertex -20 -20 3
    endloop
endfacet
facet normal -1 0 0
    outer loop
        vertex -20 -20 3
        vertex -20 20 0
        vertex -20 -20 0
    endloop
endfacet
facet normal 0 -1 0
    outer loop
        vertex -20 -20 3
        vertex -20 -20 0
        vertex 20 -20 3
    endloop
endfacet
facet normal 0 -1 -0
    outer loop
        vertex 20 -20 3
        vertex -20 -20 0
        vertex 20 -20 0
    endloop
endfacet
facet normal 0 0 -1
    outer loop
        vertex -10 10 0
        vertex -20 20 0
        vertex 10 10 0
    endloop
endfacet
facet normal -0 0 -1
    outer loop
        vertex -10 -10 0
        vertex -20 -20 0
        vertex -20 20 0
    endloop
endfacet
facet normal 0 -0 -1
    outer loop
        vertex -10 -10 0
        vertex 10 -10 0
        vertex -20 -20 0
    endloop
endfacet
facet normal 0 -0 -1
    outer loop
        vertex 10 -10 0
        vertex 20 -20 0
        vertex -20 -20 0
    endloop
endfacet
facet normal -0 -0 -1
    outer loop
        vertex -10 10 0
        vertex -10 -10 0
        vertex -20 20 0
    endloop
endfacet
facet normal 0 0 -1
    outer loop
        vertex 10 10 0
        vertex -20 20 0
        vertex 20 20 0
    endloop
endfacet
facet normal 0 0 -1
    outer loop
        vertex 10 -10 0
        vertex 10 10 0
        vertex 20 -20 0
    endloop
endfacet
facet normal 0 0 -1
    outer loop
        vertex 10 10 0
        vertex 20 20 0
        vertex 20 -20 0
    endloop
endfacet
facet normal -0 0 1
    outer loop
        vertex 10.8 10.8 3
        vertex 10.8 -10.8 3
        vertex 20 20 3
    endloop
endfacet
facet normal 0 -0 1
    outer loop
        vertex -10.8 10.8 3
        vertex 20 20 3
        vertex -20 20 3
    endloop
endfacet
facet normal 0 0 1
    outer loop
        vertex -10.8 10.8 3
        vertex -20 20 3
        vertex -10.8 -10.8 3
    endloop
endfacet
facet normal 0 0 1
    outer loop
        vertex -10.8 -10.8 3
        vertex -20 20 3
        vertex -20 -20 3
    endloop
endfacet
facet normal 0 -0 1
    outer loop
        vertex 10.8 10.8 3
        vertex 20 20 3
        vertex -10.8 10.8 3
    endloop
endfacet
facet normal 0 0 1
    outer loop
        vertex 10.8 -10.8 3
        vertex -10.8 -10.8 3
        vertex -20 -20 3
    endloop
endfacet
facet normal 0 0 1
    outer loop
        vertex -20 -20 3
        vertex 20 -20 3
        vertex 10.8 -10.8 3
    endloop
endfacet
facet normal -0 0 1
    outer loop
        vertex 10.8 -10.8 3
        vertex 20 -20 3
        vertex 20 20 3
    endloop
endfacet
facet normal 0 1 0
    outer loop
        vertex -10 -10 0
        vertex -10 -10 2.2
        vertex 10 -10 0
    endloop
endfacet
facet normal -0 1 0
    outer loop
        vertex -10 -10 2.2
        vertex 10 -10 2.2
        vertex 10 -10 0
    endloop
endfacet
facet normal 1 0 -0
    outer loop
        vertex -10 10 0
        vertex -10 10 2.2
        vertex -10 -10 0
    endloop
endfacet
facet normal 1 0 0
    outer loop
        vertex -10 10 2.2
        vertex -10 -10 2.2
        vertex -10 -10 0
    endloop
endfacet
facet normal 0 -1 0
    outer loop
        vertex 10 10 0
        vertex 10 10 2.2
        vertex -10 10 0
    endloop
endfacet
facet normal -0 -1 0
    outer loop
        vertex 10 10 2.2
        vertex -10 10 2.2
        vertex -10 10 0
    endloop
endfacet
facet normal -1 0 0
    outer loop
        vertex 10 -10 0
        vertex 10 -10 2.2
        vertex 10 10 0
    endloop
endfacet
facet normal -1 0 0
    outer loop
        vertex 10 -10 2.2
        vertex 10 10 2.2
        vertex 10 10 0
    endloop
endfacet
facet normal -0 0.70710659 0.70710683
    outer loop
        vertex -10 -10 2.2
        vertex -10.8 -10.8 3
        vertex 10 -10 2.2
    endloop
endfacet
facet normal -0 0.70710671 0.70710695
    outer loop
        vertex -10.8 -10.8 3
        vertex 10.8 -10.8 3
        vertex 10 -10 2.2
    endloop
endfacet
facet normal 0.70710659 0 0.70710683
    outer loop
        vertex -10 10 2.2
        vertex -10.8 10.8 3
        vertex -10 -10 2.2
    endloop
endfacet
facet normal 0.70710671 0 0.70710695
    outer loop
        vertex -10.8 10.8 3
        vertex -10.8 -10.8 3
        vertex -10 -10 2.2
    endloop
endfacet
facet normal 0 -0.70710659 0.70710683
    outer loop
        vertex 10 10 2.2
        vertex 10.8 10.8 3
        vertex -10 10 2.2
    endloop
endfacet
facet normal 0 -0.70710671 0.70710695
    outer loop
        vertex 10.8 10.8 3
        vertex -10.8 10.8 3
        vertex -10 10 2.2
    endloop
endfacet
facet normal -0.70710659 0 0.70710683
    outer loop
        vertex 10 -10 2.2
        vertex 10.8 -10.8 3
        vertex 10 10 2.2
    endloop
endfacet
facet normal -0.70710671 0 0.70710695
    outer loop
        vertex 10.8 -10.8 3
        vertex 10.8 10.8 3
        vertex 10 10 2.2
    endloop
endfacet
endsolid unnamed
