solid unnamed
facet normal 1 -0 0
    outer loop
        vertex 30 -20 2
        vertex 30 -20 0
        vertex 30 20 2
    endloop
endfacet
facet normal 1 0 0
    outer loop
        vertex 30 20 2
        vertex 30 -20 0
        vertex 30 20 0
    endloop
endfacet
facet normal 0 1 0
    outer loop
        vertex 30 20 2
        vertex 30 20 0
        vertex -30 20 2
    endloop
endfacet
facet normal 0 1 0
    outer loop
        vertex -30 20 2
        vertex 30 20 0
        vertex -30 20 0
    endloop
endfacet
facet normal -1 -0 -0
    outer loop
        vertex -30 20 2
        vertex -30 20 0
        vertex -30 -20 2
    endloop
endfacet
facet normal -1 0 0
    outer loop
        vertex -30 -20 2
        vertex -30 20 0
        vertex -30 -20 0
    endloop
endfacet
facet normal 0 -1 0
    outer loop
        vertex -30 -20 2
        vertex -30 -20 0
        vertex 30 -20 2
    endloop
endfacet
facet normal 0 -1 -0
    outer loop
        vertex 30 -20 2
        vertex -30 -20 0
        vertex 30 -20 0
    endloop
endfacet
facet normal 0 0 -1
    outer loop
        vertex -30 -20 0
        vertex -30 20 0
        vertex 30 -20 0
    endloop
endfacet
facet normal 0 0 -1
    outer loop
        vertex -30 20 0
        vertex 30 20 0
        vertex 30 -20 0
    endloop
endfacet
facet normal 0 0 1
    outer loop
        vertex -30 -20 2
        vertex 30 -20 2
        vertex -30 20 2
    endloop
endfacet
facet normal -0 0 1
    outer loop
        vertex -30 20 2
        vertex 30 -20 2
        vertex 30 20 2
    endloop
endfacet
endsolid unnamed
