{
  "accessors": [
    {
      "bufferView": 0,
      "byteOffset": 0,
      "count": 6,
      "componentType": 5126,
      "type": "VEC3",
      "min": [
        0.025,
        0,
        -0.025
      ],
      "max": [
        0.025,
        0.002,
        0.025
      ]
    },
    {
      "bufferView": 0,
      "byteOffset": 12,
      "count": 6,
      "componentType": 5126,
      "type": "VEC3"
    },
    {
      "bufferView": 1,
      "byteOffset": 0,
      "count": 6,
      "componentType": 5126,
      "type": "VEC3",
      "min": [
        -0.025,
        0,
        -0.025
      ],
      "max": [
        0.025,
        0.002,
        -0.025
      ]
    },
    {
      "bufferView": 1,
      "byteOffset": 12,
      "count": 6,
      "componentType": 5126,
      "type": "VEC3"
    },
    {
      "bufferView": 2,
      "byteOffset": 0,
      "count": 6,
      "componentType": 5126,
      "type": "VEC3",
      "min": [
        -0.025,
        0,
        -0.025
      ],
      "max": [
        -0.025,
        0.002,
        0.025
      ]
    },
    {
      "bufferView": 2,
      "byteOffset": 12,
      "count": 6,
      "componentType": 5126,
      "type": "VEC3"
    },
    {
      "bufferView": 3,
      "byteOffset": 0,
      "count": 6,
      "componentType": 5126,
      "type": "VEC3",
      "min": [
        -0.025,
        0,
        0.025
      ],
      "max": [
        0.025,
        0.002,
        0.025
      ]
    },
    {
      "bufferView": 3,
      "byteOffset": 12,
      "count": 6,
      "componentType": 5126,
      "type": "VEC3"
    },
    {
      "bufferView": 4,
      "byteOffset": 0,
      "count": 414,
      "componentType": 5126,
      "type": "VEC3",
      "min": [
        -0.025,
        0,
        -0.025
      ],
      "max": [
        0.025,
        0,
        0.025
      ]
    },
    {
      "bufferView": 4,
      "byteOffset": 12,
      "count": 414,
      "componentType": 5126,
      "type": "VEC3"
    },
    {
      "bufferView": 5,
      "byteOffset": 0,
      "count": 414,
      "componentType": 5126,
      "type": "VEC3",
      "min": [
        -0.025,
        0.002,
        -0.025
      ],
      "max": [
        0.025,
        0.002,
        0.025
      ]
    },
    {
      "bufferView": 5,
      "byteOffset": 12,
      "count": 414,
      "componentType": 5126,
      "type": "VEC3"
    },
    {
      "bufferView": 6,
      "byteOffset": 0,
      "count": 96,
      "componentType": 5126,
      "type": "VEC3",
      "min": [
        -0.0175,
        0,
        0.0125
      ],
      "max": [
        -0.0125,
        0.002,
        0.015
      ]
    },
    {
      "bufferView": 6,
      "byteOffset": 12,
      "count": 96,
      "componentType": 5126,
      "type": "VEC3"
    },
    {
      "bufferView": 7,
      "byteOffset": 0,
      "count": 96,
      "componentType": 5126,
      "type": "VEC3",
      "min": [
        -0.0175,
        0,
        0.015
      ],
      "max": [
        -0.0125,
        0.002,
        0.0175
      ]
    },
    {
      "bufferView": 7,
      "byteOffset": 12,
      "count": 96,
      "componentType": 5126,
      "type": "VEC3"
    },
    {
      "bufferView": 8,
      "byteOffset": 0,
      "count": 96,
      "componentType": 5126,
      "type": "VEC3",
      "min": [
        -0.0175,
        0,
        -0.0175
      ],
      "max": [
        -0.0125,
        0.002,
        -0.015
      ]
    },
    {
      "bufferView": 8,
      "byteOffset": 12,
      "count": 96,
      "componentType": 5126,
      "type": "VEC3"
    },
    {
      "bufferView": 9,
      "byteOffset": 0,
      "count": 96,
      "componentType": 5126,
      "type": "VEC3",
      "min": [
        -0.0175,
        0,
        -0.015
      ],
      "max": [
        -0.0125,
        0.002,
        -0.0125
      ]
    },
    {
      "bufferView": 9,
      "byteOffset": 12,
      "count": 96,
      "componentType": 5126,
      "type": "VEC3"
    },
    {
      "bufferView": 10,
      "byteOffset": 0,
      "count": 96,
      "componentType": 5126,
      "type": "VEC3",
      "min": [
        0.0125,
        0,
        0.0125
      ],
      "max": [
        0.0175,
        0.002,
        0.015
      ]
    },
    {
      "bufferView": 10,
      "byteOffset": 12,
      "count": 96,
      "componentType": 5126,
      "type": "VEC3"
    },
    {
      "bufferView": 11,
      "byteOffset": 0,
      "count": 96,
      "componentType": 5126,
      "type": "VEC3",
      "min": [
        0.0125,
        0,
        0.015
      ],
      "max": [
        0.0175,
        0.002,
        0.0175
      ]
    },
    {
      "bufferView": 11,
      "byteOffset": 12,
      "count": 96,
      "componentType": 5126,
      "type": "VEC3"
    },
    {
      "bufferView": 12,
      "byteOffset": 0,
      "count": 96,
      "componentType": 5126,
      "type": "VEC3",
      "min": [
        0.0125,
        0,
        -0.0175
      ],
      "max": [
        0.0175,
        0.002,
        -0.015
      ]
    },
    {
      "bufferView": 12,
      "byteOffset": 12,
      "count": 96,
      "componentType": 5126,
      "type": "VEC3"
    },
    {
      "bufferView": 13,
      "byteOffset": 0,
      "count": 96,
      "componentType": 5126,
      "type": "VEC3",
      "min": [
        0.0125,
        0,
        -0.015
      ],
      "max": [
        0.0175,
        0.002,
        -0.0125
      ]
    },
    {
      "bufferView": 13,
      "byteOffset": 12,
      "count": 96,
      "componentType": 5126,
      "type": "VEC3"
    }
  ],
  "asset": {
    "generator": "zoo.dev",
    "version": "2.0"
  },
  "buffers": [
    {
      "byteLength": 38880,
      "uri": "data:application/octet-stream;base64,"
    }
  ],
  "bufferViews": [
    {
      "buffer": 0,
      "byteLength": 144,
      "byteOffset": 0,
      "byteStride": 24,
      "target": 34962
    },
    {
      "buffer": 0,
      "byteLength": 144,
      "byteOffset": 144,
      "byteStride": 24,
      "target": 34962
    },
    {
      "buffer": 0,
      "byteLength": 144,
      "byteOffset": 288,
      "byteStride": 24,
      "target": 34962
    },
    {
      "buffer": 0,
      "byteLength": 144,
      "byteOffset": 432,
      "byteStride": 24,
      "target": 34962
    },
    {
      "buffer": 0,
      "byteLength": 9936,
      "byteOffset": 576,
      "byteStride": 24,
      "target": 34962
    },
    {
      "buffer": 0,
      "byteLength": 9936,
      "byteOffset": 10512,
      "byteStride": 24,
      "target": 34962
    },
    {
      "buffer": 0,
      "byteLength": 2304,
      "byteOffset": 20448,
      "byteStride": 24,
      "target": 34962
    },
    {
      "buffer": 0,
      "byteLength": 2304,
      "byteOffset": 22752,
      "byteStride": 24,
      "target": 34962
    },
    {
      "buffer": 0,
      "byteLength": 2304,
      "byteOffset": 25056,
      "byteStride": 24,
      "target": 34962
    },
    {
      "buffer": 0,
      "byteLength": 2304,
      "byteOffset": 27360,
      "byteStride": 24,
      "target": 34962
    },
    {
      "buffer": 0,
      "byteLength": 2304,
      "byteOffset": 29664,
      "byteStride": 24,
      "target": 34962
    },
    {
      "buffer": 0,
      "byteLength": 2304,
      "byteOffset": 31968,
      "byteStride": 24,
      "target": 34962
    },
    {
      "buffer": 0,
      "byteLength": 2304,
      "byteOffset": 34272,
      "byteStride": 24,
      "target": 34962
    },
    {
      "buffer": 0,
      "byteLength": 2304,
      "byteOffset": 36576,
      "byteStride": 24,
      "target": 34962
    }
  ],
  "scene": 0,
  "extensions": {
    "KITTYCAD_boundary_representation": {
      "solids": [
        {
          "shells": [
            [
              0,
              1
            ]
          ],
          "mesh": 0,
          "extras": {
            "KITTYCAD": {
              "material": 0
            }
          }
        }
      ],
      "shells": [
        {
          "faces": [
            [
              0,
              1
            ],
            [
              1,
              1
            ],
            [
              2,
              1
            ],
            [
              3,
              1
            ],
            [
              4,
              1
            ],
            [
              5,
              1
            ],
            [
              6,
              1
            ],
            [
              7,
              1
            ],
            [
              8,
              1
            ],
            [
              9,
              1
            ],
            [
              10,
              1
            ],
            [
              11,
              1
            ],
            [
              12,
              1
            ],
            [
              13,
              1
            ]
          ]
        }
      ],
      "faces": [
        {
          "surface": [
            0,
            1
          ],
          "loops": [
            [
              0,
              1
            ]
          ]
        },
        {
          "surface": [
            1,
            1
          ],
          "loops": [
            [
              1,
              1
            ]
          ]
        },
        {
          "surface": [
            2,
            1
          ],
          "loops": [
            [
              2,
              1
            ]
          ]
        },
        {
          "surface": [
            3,
            1
          ],
          "loops": [
            [
              3,
              1
            ]
          ]
        },
        {
          "surface": [
            4,
            -1
          ],
          "loops": [
            [
              4,
              1
            ],
            [
              5,
              1
            ],
            [
              6,
              1
            ],
            [
              7,
              1
            ],
            [
              8,
              1
            ]
          ]
        },
        {
          "surface": [
            5,
            1
          ],
          "loops": [
            [
              9,
              1
            ],
            [
              10,
              1
            ],
            [
              11,
              1
            ],
            [
              12,
              1
            ],
            [
              13,
              1
            ]
          ]
        },
        {
          "surface": [
            6,
            -1
          ],
          "loops": [
            [
              14,
              1
            ]
          ]
        },
        {
          "surface": [
            7,
            -1
          ],
          "loops": [
            [
              15,
              1
            ]
          ]
        },
        {
          "surface": [
            8,
            -1
          ],
          "loops": [
            [
              16,
              1
            ]
          ]
        },
        {
          "surface": [
            9,
            -1
          ],
          "loops": [
            [
              17,
              1
            ]
          ]
        },
        {
          "surface": [
            10,
            -1
          ],
          "loops": [
            [
              18,
              1
            ]
          ]
        },
        {
          "surface": [
            11,
            -1
          ],
          "loops": [
            [
              19,
              1
            ]
          ]
        },
        {
          "surface": [
            12,
            -1
          ],
          "loops": [
            [
              20,
              1
            ]
          ]
        },
        {
          "surface": [
            13,
            -1
          ],
          "loops": [
            [
              21,
              1
            ]
          ]
        }
      ],
      "loops": [
        {
          "edges": [
            [
              0,
              1
            ],
            [
              1,
              1
            ],
            [
              2,
              -1
            ],
            [
              3,
              -1
            ]
          ]
        },
        {
          "edges": [
            [
              4,
              1
            ],
            [
              5,
              1
            ],
            [
              6,
              -1
            ],
            [
              1,
              -1
            ]
          ]
        },
        {
          "edges": [
            [
              7,
              1
            ],
            [
              8,
              1
            ],
            [
              9,
              -1
            ],
            [
              5,
              -1
            ]
          ]
        },
        {
          "edges": [
            [
              10,
              1
            ],
            [
              3,
              1
            ],
            [
              11,
              -1
            ],
            [
              8,
              -1
            ]
          ]
        },
        {
          "edges": [
            [
              10,
              -1
            ],
            [
              7,
              -1
            ],
            [
              4,
              -1
            ],
            [
              0,
              -1
            ]
          ]
        },
        {
          "edges": [
            [
              12,
              1
            ],
            [
              13,
              -1
            ],
            [
              14,
              -1
            ],
            [
              15,
              1
            ]
          ]
        },
        {
          "edges": [
            [
              16,
              1
            ],
            [
              17,
              -1
            ],
            [
              18,
              -1
            ],
            [
              19,
              1
            ]
          ]
        },
        {
          "edges": [
            [
              20,
              1
            ],
            [
              21,
              -1
            ],
            [
              22,
              -1
            ],
            [
              23,
              1
            ]
          ]
        },
        {
          "edges": [
            [
              24,
              1
            ],
            [
              25,
              -1
            ],
            [
              26,
              -1
            ],
            [
              27,
              1
            ]
          ]
        },
        {
          "edges": [
            [
              2,
              1
            ],
            [
              6,
              1
            ],
            [
              9,
              1
            ],
            [
              11,
              1
            ]
          ]
        },
        {
          "edges": [
            [
              28,
              -1
            ],
            [
              29,
              1
            ],
            [
              30,
              1
            ],
            [
              31,
              -1
            ]
          ]
        },
        {
          "edges": [
            [
              32,
              -1
            ],
            [
              33,
              1
            ],
            [
              34,
              1
            ],
            [
              35,
              -1
            ]
          ]
        },
        {
          "edges": [
            [
              36,
              -1
            ],
            [
              37,
              1
            ],
            [
              38,
              1
            ],
            [
              39,
              -1
            ]
          ]
        },
        {
          "edges": [
            [
              40,
              -1
            ],
            [
              41,
              1
            ],
            [
              42,
              1
            ],
            [
              43,
              -1
            ]
          ]
        },
        {
          "edges": [
            [
              12,
              -1
            ],
            [
              15,
              -1
            ],
            [
              44,
              1
            ],
            [
              28,
              1
            ],
            [
              31,
              1
            ],
            [
              45,
              -1
            ]
          ]
        },
        {
          "edges": [
            [
              30,
              -1
            ],
            [
              29,
              -1
            ],
            [
              44,
              -1
            ],
            [
              14,
              1
            ],
            [
              13,
              1
            ],
            [
              45,
              1
            ]
          ]
        },
        {
          "edges": [
            [
              16,
              -1
            ],
            [
              19,
              -1
            ],
            [
              46,
              1
            ],
            [
              32,
              1
            ],
            [
              35,
              1
            ],
            [
              47,
              -1
            ]
          ]
        },
        {
          "edges": [
            [
              34,
              -1
            ],
            [
              33,
              -1
            ],
            [
              46,
              -1
            ],
            [
              18,
              1
            ],
            [
              17,
              1
            ],
            [
              47,
              1
            ]
          ]
        },
        {
          "edges": [
            [
              20,
              -1
            ],
            [
              23,
              -1
            ],
            [
              48,
              1
            ],
            [
              36,
              1
            ],
            [
              39,
              1
            ],
            [
              49,
              -1
            ]
          ]
        },
        {
          "edges": [
            [
              38,
              -1
            ],
            [
              37,
              -1
            ],
            [
              48,
              -1
            ],
            [
              22,
              1
            ],
            [
              21,
              1
            ],
            [
              49,
              1
            ]
          ]
        },
        {
          "edges": [
            [
              24,
              -1
            ],
            [
              27,
              -1
            ],
            [
              50,
              1
            ],
            [
              40,
              1
            ],
            [
              43,
              1
            ],
            [
              51,
              -1
            ]
          ]
        },
        {
          "edges": [
            [
              42,
              -1
            ],
            [
              41,
              -1
            ],
            [
              50,
              -1
            ],
            [
              26,
              1
            ],
            [
              25,
              1
            ],
            [
              51,
              1
            ]
          ]
        }
      ],
      "edges": [
        {
          "curve": [
            0,
            1
          ],
          "start": 0,
          "end": 1,
          "t": [
            0,
            0.05
          ]
        },
        {
          "curve": [
            1,
            1
          ],
          "start": 1,
          "end": 2,
          "t": [
            0,
            0.002
          ]
        },
        {
          "curve": [
            2,
            1
          ],
          "start": 3,
          "end": 2,
          "t": [
            0,
            0.05
          ]
        },
        {
          "curve": [
            3,
            1
          ],
          "start": 0,
          "end": 3,
          "t": [
            0,
            0.002
          ]
        },
        {
          "curve": [
            4,
            1
          ],
          "start": 1,
          "end": 4,
          "t": [
            0,
            0.05
          ]
        },
        {
          "curve": [
            5,
            1
          ],
          "start": 4,
          "end": 5,
          "t": [
            0,
            0.002
          ]
        },
        {
          "curve": [
            6,
            1
          ],
          "start": 2,
          "end": 5,
          "t": [
            0,
            0.05
          ]
        },
        {
          "curve": [
            7,
            1
          ],
          "start": 4,
          "end": 6,
          "t": [
            0,
            0.05
          ]
        },
        {
          "curve": [
            8,
            1
          ],
          "start": 6,
          "end": 7,
          "t": [
            0,
            0.002
          ]
        },
        {
          "curve": [
            9,
            1
          ],
          "start": 5,
          "end": 7,
          "t": [
            0,
            0.05
          ]
        },
        {
          "curve": [
            10,
            1
          ],
          "start": 6,
          "end": 0,
          "t": [
            0,
            0.05
          ]
        },
        {
          "curve": [
            11,
            1
          ],
          "start": 7,
          "end": 3,
          "t": [
            0,
            0.05
          ]
        },
        {
          "curve": [
            12,
            1
          ],
          "start": 8,
          "end": 9,
          "t": [
            0,
            1.5707963267948966
          ]
        },
        {
          "curve": [
            13,
            1
          ],
          "start": 10,
          "end": 9,
          "t": [
            0,
            1.5707963267948966
          ]
        },
        {
          "curve": [
            14,
            1
          ],
          "start": 11,
          "end": 10,
          "t": [
            0,
            1.5707963267948966
          ]
        },
        {
          "curve": [
            15,
            1
          ],
          "start": 11,
          "end": 8,
          "t": [
            0,
            1.5707963267948966
          ]
        },
        {
          "curve": [
            16,
            1
          ],
          "start": 12,
          "end": 13,
          "t": [
            0.000000005999999678415403,
            1.5707963367948967
          ]
        },
        {
          "curve": [
            17,
            1
          ],
          "start": 14,
          "end": 13,
          "t": [
            0,
            1.5707963167948964
          ]
        },
        {
          "curve": [
            18,
            1
          ],
          "start": 15,
          "end": 14,
          "t": [
            0,
            1.5707963307948969
          ]
        },
        {
          "curve": [
            19,
            1
          ],
          "start": 15,
          "end": 12,
          "t": [
            0,
            1.5707963227948962
          ]
        },
        {
          "curve": [
            20,
            1
          ],
          "start": 16,
          "end": 17,
          "t": [
            0.000000005999999659661628,
            1.5707963367948967
          ]
        },
        {
          "curve": [
            21,
            1
          ],
          "start": 18,
          "end": 17,
          "t": [
            0,
            1.5707963167948964
          ]
        },
        {
          "curve": [
            22,
            1
          ],
          "start": 19,
          "end": 18,
          "t": [
            0,
            1.5707963307948969
          ]
        },
        {
          "curve": [
            23,
            1
          ],
          "start": 19,
          "end": 16,
          "t": [
            0,
            1.5707963227948962
          ]
        },
        {
          "curve": [
            24,
            1
          ],
          "start": 20,
          "end": 21,
          "t": [
            0,
            1.5707963267948966
          ]
        },
        {
          "curve": [
            25,
            1
          ],
          "start": 22,
          "end": 21,
          "t": [
            0,
            1.5707963267948966
          ]
        },
        {
          "curve": [
            26,
            1
          ],
          "start": 23,
          "end": 22,
          "t": [
            0,
            1.5707963267948966
          ]
        },
        {
          "curve": [
            27,
            1
          ],
          "start": 23,
          "end": 20,
          "t": [
            0,
            1.5707963267948966
          ]
        },
        {
          "curve": [
            28,
            1
          ],
          "start": 24,
          "end": 25,
          "t": [
            0,
            1.5707963267948966
          ]
        },
        {
          "curve": [
            29,
            1
          ],
          "start": 24,
          "end": 26,
          "t": [
            0,
            1.5707963267948966
          ]
        },
        {
          "curve": [
            30,
            1
          ],
          "start": 26,
          "end": 27,
          "t": [
            0,
            1.5707963267948966
          ]
        },
        {
          "curve": [
            31,
            1
          ],
          "start": 25,
          "end": 27,
          "t": [
            0,
            1.5707963267948966
          ]
        },
        {
          "curve": [
            32,
            1
          ],
          "start": 28,
          "end": 29,
          "t": [
            0,
            1.5707963187948963
          ]
        },
        {
          "curve": [
            33,
            1
          ],
          "start": 28,
          "end": 30,
          "t": [
            0,
            1.5707963347948966
          ]
        },
        {
          "curve": [
            34,
            1
          ],
          "start": 30,
          "end": 31,
          "t": [
            0,
            1.5707963167948964
          ]
        },
        {
          "curve": [
            35,
            1
          ],
          "start": 29,
          "end": 31,
          "t": [
            0.000000002000000057996655,
            1.5707963367948967
          ]
        },
        {
          "curve": [
            36,
            1
          ],
          "start": 32,
          "end": 33,
          "t": [
            0,
            1.5707963187948963
          ]
        },
        {
          "curve": [
            37,
            1
          ],
          "start": 32,
          "end": 34,
          "t": [
            0,
            1.5707963347948966
          ]
        },
        {
          "curve": [
            38,
            1
          ],
          "start": 34,
          "end": 35,
          "t": [
            0,
            1.5707963167948964
          ]
        },
        {
          "curve": [
            39,
            1
          ],
          "start": 33,
          "end": 35,
          "t": [
            0.0000000020000000392428802,
            1.5707963367948967
          ]
        },
        {
          "curve": [
            40,
            1
          ],
          "start": 36,
          "end": 37,
          "t": [
            0,
            1.5707963267948966
          ]
        },
        {
          "curve": [
            41,
            1
          ],
          "start": 36,
          "end": 38,
          "t": [
            0,
            1.5707963267948966
          ]
        },
        {
          "curve": [
            42,
            1
          ],
          "start": 38,
          "end": 39,
          "t": [
            0,
            1.5707963267948966
          ]
        },
        {
          "curve": [
            43,
            1
          ],
          "start": 37,
          "end": 39,
          "t": [
            0,
            1.5707963267948966
          ]
        },
        {
          "curve": [
            44,
            1
          ],
          "start": 11,
          "end": 24,
          "t": [
            0,
            0.002
          ]
        },
        {
          "curve": [
            45,
            1
          ],
          "start": 9,
          "end": 27,
          "t": [
            0,
            0.002
          ]
        },
        {
          "curve": [
            46,
            1
          ],
          "start": 15,
          "end": 28,
          "t": [
            0,
            0.002
          ]
        },
        {
          "curve": [
            47,
            1
          ],
          "start": 13,
          "end": 31,
          "t": [
            0,
            0.002
          ]
        },
        {
          "curve": [
            48,
            1
          ],
          "start": 19,
          "end": 32,
          "t": [
            0,
            0.002
          ]
        },
        {
          "curve": [
            49,
            1
          ],
          "start": 17,
          "end": 35,
          "t": [
            0,
            0.002
          ]
        },
        {
          "curve": [
            50,
            1
          ],
          "start": 23,
          "end": 36,
          "t": [
            0,
            0.002
          ]
        },
        {
          "curve": [
            51,
            1
          ],
          "start": 21,
          "end": 39,
          "t": [
            0,
            0.002
          ]
        }
      ],
      "vertices": [
        [
          0.025,
          0,
          0.025
        ],
        [
          0.025,
          0,
          -0.025
        ],
        [
          0.025,
          0.002,
          -0.025
        ],
        [
          0.025,
          0.002,
          0.025
        ],
        [
          -0.025,
          0,
          -0.025
        ],
        [
          -0.025,
          0.002,
          -0.025
        ],
        [
          -0.025,
          0,
          0.025
        ],
        [
          -0.025,
          0.002,
          0.025
        ],
        [
          -0.015,
          -0,
          0.0125
        ],
        [
          -0.0175,
          0,
          0.015
        ],
        [
          -0.015,
          0,
          0.0175
        ],
        [
          -0.0125,
          0,
          0.015
        ],
        [
          -0.01499999999,
          -0,
          -0.0175
        ],
        [
          -0.0175,
          0,
          -0.015
        ],
        [
          -0.015000000010000002,
          0,
          -0.0125
        ],
        [
          -0.0125,
          0,
          -0.015
        ],
        [
          0.015000000010000002,
          -0,
          0.0125
        ],
        [
          0.0125,
          0,
          0.015
        ],
        [
          0.01499999999,
          -0,
          0.0175
        ],
        [
          0.0175,
          0,
          0.015
        ],
        [
          0.015,
          0,
          -0.0175
        ],
        [
          0.0125,
          0,
          -0.015
        ],
        [
          0.015,
          -0,
          -0.0125
        ],
        [
          0.0175,
          0,
          -0.015
        ],
        [
          -0.0125,
          0.002,
          0.015
        ],
        [
          -0.015,
          0.002,
          0.0125
        ],
        [
          -0.015,
          0.002,
          0.0175
        ],
        [
          -0.0175,
          0.002,
          0.015
        ],
        [
          -0.0125,
          0.002,
          -0.015
        ],
        [
          -0.01499999998,
          0.002,
          -0.0175
        ],
        [
          -0.01500000002,
          0.002,
          -0.0125
        ],
        [
          -0.0175,
          0.002,
          -0.015
        ],
        [
          0.0175,
          0.002,
          0.015
        ],
        [
          0.01500000002,
          0.002,
          0.0125
        ],
        [
          0.01499999998,
          0.002,
          0.0175
        ],
        [
          0.0125,
          0.002,
          0.015
        ],
        [
          0.0175,
          0.002,
          -0.015
        ],
        [
          0.015,
          0.002,
          -0.0175
        ],
        [
          0.015,
          0.002,
          -0.0125
        ],
        [
          0.0125,
          0.002,
          -0.015
        ]
      ],
      "surfaces": [
        {
          "type": "plane",
          "plane": {
            "xAxis": [
              0,
              0,
              -1
            ],
            "yAxis": [
              -0,
              1,
              -0
            ],
            "origin": [
              0.025,
              0.001,
              -0
            ]
          }
        },
        {
          "type": "plane",
          "plane": {
            "xAxis": [
              1,
              0,
              -0
            ],
            "yAxis": [
              0,
              -1,
              0
            ],
            "origin": [
              0,
              0.001,
              -0.025
            ]
          }
        },
        {
          "type": "plane",
          "plane": {
            "xAxis": [
              0,
              0,
              -1
            ],
            "yAxis": [
              0,
              -1,
              -0
            ],
            "origin": [
              -0.025,
              0.001,
              -0
            ]
          }
        },
        {
          "type": "plane",
          "plane": {
            "xAxis": [
              1,
              0,
              -0
            ],
            "yAxis": [
              -0,
              1,
              -0
            ],
            "origin": [
              0,
              0.001,
              0.025
            ]
          }
        },
        {
          "type": "plane",
          "plane": {
            "xAxis": [
              1,
              0,
              -0
            ],
            "yAxis": [
              0,
              0,
              -1
            ],
            "origin": [
              0,
              0,
              -0
            ]
          }
        },
        {
          "type": "plane",
          "plane": {
            "xAxis": [
              1,
              0,
              -0
            ],
            "yAxis": [
              -0,
              0,
              -1
            ],
            "origin": [
              0,
              0.002,
              -0
            ]
          }
        },
        {
          "type": "cylinder",
          "cylinder": {
            "xAxis": [
              1,
              0,
              -0
            ],
            "yAxis": [
              -0,
              0,
              -1
            ],
            "origin": [
              -0.015,
              0.001,
              0.015
            ],
            "radius": 0.0025
          }
        },
        {
          "type": "cylinder",
          "cylinder": {
            "xAxis": [
              1,
              0,
              -0
            ],
            "yAxis": [
              -0,
              0,
              -1
            ],
            "origin": [
              -0.015,
              0.001,
              0.015
            ],
            "radius": 0.0025
          }
        },
        {
          "type": "cylinder",
          "cylinder": {
            "xAxis": [
              1,
              0,
              -0
            ],
            "yAxis": [
              -0,
              0,
              -1
            ],
            "origin": [
              -0.015,
              0.001,
              -0.015
            ],
            "radius": 0.0025
          }
        },
        {
          "type": "cylinder",
          "cylinder": {
            "xAxis": [
              1,
              0,
              -0
            ],
            "yAxis": [
              -0,
              0,
              -1
            ],
            "origin": [
              -0.015,
              0.001,
              -0.015
            ],
            "radius": 0.0025
          }
        },
        {
          "type": "cylinder",
          "cylinder": {
            "xAxis": [
              1,
              0,
              -0
            ],
            "yAxis": [
              -0,
              0,
              -1
            ],
            "origin": [
              0.015,
              0.001,
              0.015
            ],
            "radius": 0.0025
          }
        },
        {
          "type": "cylinder",
          "cylinder": {
            "xAxis": [
              1,
              0,
              -0
            ],
            "yAxis": [
              -0,
              0,
              -1
            ],
            "origin": [
              0.015,
              0.001,
              0.015
            ],
            "radius": 0.0025
          }
        },
        {
          "type": "cylinder",
          "cylinder": {
            "xAxis": [
              1,
              0,
              -0
            ],
            "yAxis": [
              -0,
              0,
              -1
            ],
            "origin": [
              0.015,
              0.001,
              -0.015
            ],
            "radius": 0.0025
          }
        },
        {
          "type": "cylinder",
          "cylinder": {
            "xAxis": [
              1,
              0,
              -0
            ],
            "yAxis": [
              -0,
              0,
              -1
            ],
            "origin": [
              0.015,
              0.001,
              -0.015
            ],
            "radius": 0.0025
          }
        }
      ],
      "curves3D": [
        {
          "type": "line",
          "line": {
            "origin": [
              0.025,
              0,
              0.025
            ],
            "direction": [
              0,
              0,
              -1
            ]
          }
        },
        {
          "type": "line",
          "line": {
            "origin": [
              0.025,
              0,
              -0.025
            ],
            "direction": [
              0,
              1,
              -0
            ]
          }
        },
        {
          "type": "line",
          "line": {
            "origin": [
              0.025,
              0.002,
              0.025
            ],
            "direction": [
              0,
              0,
              -1
            ]
          }
        },
        {
          "type": "line",
          "line": {
            "origin": [
              0.025,
              0,
              0.025
            ],
            "direction": [
              0,
              1,
              -0
            ]
          }
        },
        {
          "type": "line",
          "line": {
            "origin": [
              0.025,
              0,
              -0.025
            ],
            "direction": [
              -1,
              0,
              -0
            ]
          }
        },
        {
          "type": "line",
          "line": {
            "origin": [
              -0.025,
              0,
              -0.025
            ],
            "direction": [
              0,
              1,
              -0
            ]
          }
        },
        {
          "type": "line",
          "line": {
            "origin": [
              0.025,
              0.002,
              -0.025
            ],
            "direction": [
              -1,
              0,
              -0
            ]
          }
        },
        {
          "type": "line",
          "line": {
            "origin": [
              -0.025,
              0,
              -0.025
            ],
            "direction": [
              0,
              0,
              1
            ]
          }
        },
        {
          "type": "line",
          "line": {
            "origin": [
              -0.025,
              0,
              0.025
            ],
            "direction": [
              0,
              1,
              -0
            ]
          }
        },
        {
          "type": "line",
          "line": {
            "origin": [
              -0.025,
              0.002,
              -0.025
            ],
            "direction": [
              0,
              0,
              1
            ]
          }
        },
        {
          "type": "line",
          "line": {
            "origin": [
              -0.025,
              0,
              0.025
            ],
            "direction": [
              1,
              -0,
              -0
            ]
          }
        },
        {
          "type": "line",
          "line": {
            "origin": [
              -0.025,
              0.002,
              0.025
            ],
            "direction": [
              1,
              -0,
              -0
            ]
          }
        },
        {
          "type": "circle",
          "circle": {
            "xAxis": [
              0,
              0,
              -1
            ],
            "yAxis": [
              -1,
              0,
              -0
            ],
            "origin": [
              -0.015,
              0,
              0.015
            ],
            "radius": 0.0025
          }
        },
        {
          "type": "circle",
          "circle": {
            "xAxis": [
              0,
              0,
              1
            ],
            "yAxis": [
              -1,
              -0,
              0
            ],
            "origin": [
              -0.015,
              0,
              0.015
            ],
            "radius": 0.0025
          }
        },
        {
          "type": "circle",
          "circle": {
            "xAxis": [
              1,
              0,
              -0
            ],
            "yAxis": [
              0,
              0,
              1
            ],
            "origin": [
              -0.015,
              0,
              0.015
            ],
            "radius": 0.0025
          }
        },
        {
          "type": "circle",
          "circle": {
            "xAxis": [
              1,
              -0,
              -0
            ],
            "yAxis": [
              -0,
              0,
              -1
            ],
            "origin": [
              -0.015,
              0,
              0.015
            ],
            "radius": 0.0025
          }
        },
        {
          "type": "circle",
          "circle": {
            "xAxis": [
              0.00000001,
              0,
              -1
            ],
            "yAxis": [
              -1,
              0,
              -0.00000001
            ],
            "origin": [
              -0.015,
              0,
              -0.015
            ],
            "radius": 0.0025
          }
        },
        {
          "type": "circle",
          "circle": {
            "xAxis": [
              -0.00000001,
              0,
              1
            ],
            "yAxis": [
              -1,
              0,
              -0.00000001
            ],
            "origin": [
              -0.015,
              0,
              -0.015
            ],
            "radius": 0.0025
          }
        },
        {
          "type": "circle",
          "circle": {
            "xAxis": [
              1,
              0,
              -0
            ],
            "yAxis": [
              0,
              0,
              1
            ],
            "origin": [
              -0.015,
              0,
              -0.015
            ],
            "radius": 0.0025
          }
        },
        {
          "type": "circle",
          "circle": {
            "xAxis": [
              1,
              -0,
              -0
            ],
            "yAxis": [
              -0,
              0,
              -1
            ],
            "origin": [
              -0.015,
              0,
              -0.015
            ],
            "radius": 0.0025
          }
        },
        {
          "type": "circle",
          "circle": {
            "xAxis": [
              0.00000001,
              0,
              -1
            ],
            "yAxis": [
              -1,
              0,
              -0.00000001
            ],
            "origin": [
              0.015,
              0,
              0.015
            ],
            "radius": 0.0025
          }
        },
        {
          "type": "circle",
          "circle": {
            "xAxis": [
              -0.00000001,
              0,
              1
            ],
            "yAxis": [
              -1,
              0,
              -0.00000001
            ],
            "origin": [
              0.015,
              0,
              0.015
            ],
            "radius": 0.0025
          }
        },
        {
          "type": "circle",
          "circle": {
            "xAxis": [
              1,
              0,
              -0
            ],
            "yAxis": [
              0,
              0,
              1
            ],
            "origin": [
              0.015,
              0,
              0.015
            ],
            "radius": 0.0025
          }
        },
        {
          "type": "circle",
          "circle": {
            "xAxis": [
              1,
              -0,
              -0
            ],
            "yAxis": [
              -0,
              0,
              -1
            ],
            "origin": [
              0.015,
              0,
              0.015
            ],
            "radius": 0.0025
          }
        },
        {
          "type": "circle",
          "circle": {
            "xAxis": [
              0,
              0,
              -1
            ],
            "yAxis": [
              -1,
              0,
              -0
            ],
            "origin": [
              0.015,
              0,
              -0.015
            ],
            "radius": 0.0025
          }
        },
        {
          "type": "circle",
          "circle": {
            "xAxis": [
              0,
              0,
              1
            ],
            "yAxis": [
              -1,
              -0,
              0
            ],
            "origin": [
              0.015,
              0,
              -0.015
            ],
            "radius": 0.0025
          }
        },
        {
          "type": "circle",
          "circle": {
            "xAxis": [
              1,
              0,
              -0
            ],
            "yAxis": [
              0,
              0,
              1
            ],
            "origin": [
              0.015,
              0,
              -0.015
            ],
            "radius": 0.0025
          }
        },
        {
          "type": "circle",
          "circle": {
            "xAxis": [
              1,
              -0,
              -0
            ],
            "yAxis": [
              -0,
              0,
              -1
            ],
            "origin": [
              0.015,
              0,
              -0.015
            ],
            "radius": 0.0025
          }
        },
        {
          "type": "circle",
          "circle": {
            "xAxis": [
              1,
              -0,
              -0
            ],
            "yAxis": [
              -0,
              0,
              -1
            ],
            "origin": [
              -0.015,
              0.002,
              0.015
            ],
            "radius": 0.0025
          }
        },
        {
          "type": "circle",
          "circle": {
            "xAxis": [
              1,
              0,
              -0
            ],
            "yAxis": [
              0,
              0,
              1
            ],
            "origin": [
              -0.015,
              0.002,
              0.015
            ],
            "radius": 0.0025
          }
        },
        {
          "type": "circle",
          "circle": {
            "xAxis": [
              0,
              0,
              1
            ],
            "yAxis": [
              -1,
              -0,
              0
            ],
            "origin": [
              -0.015,
              0.002,
              0.015
            ],
            "radius": 0.0025
          }
        },
        {
          "type": "circle",
          "circle": {
            "xAxis": [
              0,
              0,
              -1
            ],
            "yAxis": [
              -1,
              0,
              -0
            ],
            "origin": [
              -0.015,
              0.002,
              0.015
            ],
            "radius": 0.0025
          }
        },
        {
          "type": "circle",
          "circle": {
            "xAxis": [
              1,
              -0,
              -0
            ],
            "yAxis": [
              -0,
              0,
              -1
            ],
            "origin": [
              -0.015,
              0.002,
              -0.015
            ],
            "radius": 0.0025
          }
        },
        {
          "type": "circle",
          "circle": {
            "xAxis": [
              1,
              0,
              -0
            ],
            "yAxis": [
              0,
              0,
              1
            ],
            "origin": [
              -0.015,
              0.002,
              -0.015
            ],
            "radius": 0.0025
          }
        },
        {
          "type": "circle",
          "circle": {
            "xAxis": [
              -0.00000001,
              0,
              1
            ],
            "yAxis": [
              -1,
              0,
              -0.00000001
            ],
            "origin": [
              -0.015,
              0.002,
              -0.015
            ],
            "radius": 0.0025
          }
        },
        {
          "type": "circle",
          "circle": {
            "xAxis": [
              0.00000001,
              0,
              -1
            ],
            "yAxis": [
              -1,
              0,
              -0.00000001
            ],
            "origin": [
              -0.015,
              0.002,
              -0.015
            ],
            "radius": 0.0025
          }
        },
        {
          "type": "circle",
          "circle": {
            "xAxis": [
              1,
              -0,
              -0
            ],
            "yAxis": [
              -0,
              0,
              -1
            ],
            "origin": [
              0.015,
              0.002,
              0.015
            ],
            "radius": 0.0025
          }
        },
        {
          "type": "circle",
          "circle": {
            "xAxis": [
              1,
              0,
              -0
            ],
            "yAxis": [
              0,
              0,
              1
            ],
            "origin": [
              0.015,
              0.002,
              0.015
            ],
            "radius": 0.0025
          }
        },
        {
          "type": "circle",
          "circle": {
            "xAxis": [
              -0.00000001,
              0,
              1
            ],
            "yAxis": [
              -1,
              0,
              -0.00000001
            ],
            "origin": [
              0.015,
              0.002,
              0.015
            ],
            "radius": 0.0025
          }
        },
        {
          "type": "circle",
          "circle": {
            "xAxis": [
              0.00000001,
              0,
              -1
            ],
            "yAxis": [
              -1,
              0,
              -0.00000001
            ],
            "origin": [
              0.015,
              0.002,
              0.015
            ],
            "radius": 0.0025
          }
        },
        {
          "type": "circle",
          "circle": {
            "xAxis": [
              1,
              -0,
              -0
            ],
            "yAxis": [
              -0,
              0,
              -1
            ],
            "origin": [
              0.015,
              0.002,
              -0.015
            ],
            "radius": 0.0025
          }
        },
        {
          "type": "circle",
          "circle": {
            "xAxis": [
              1,
              0,
              -0
            ],
            "yAxis": [
              0,
              0,
              1
            ],
            "origin": [
              0.015,
              0.002,
              -0.015
            ],
            "radius": 0.0025
          }
        },
        {
          "type": "circle",
          "circle": {
            "xAxis": [
              0,
              0,
              1
            ],
            "yAxis": [
              -1,
              -0,
              0
            ],
            "origin": [
              0.015,
              0.002,
              -0.015
            ],
            "radius": 0.0025
          }
        },
        {
          "type": "circle",
          "circle": {
            "xAxis": [
              0,
              0,
              -1
            ],
            "yAxis": [
              -1,
              0,
              -0
            ],
            "origin": [
              0.015,
              0.002,
              -0.015
            ],
            "radius": 0.0025
          }
        },
        {
          "type": "line",
          "line": {
            "origin": [
              -0.0125,
              0,
              0.015
            ],
            "direction": [
              0,
              1,
              -0
            ]
          }
        },
        {
          "type": "line",
          "line": {
            "origin": [
              -0.0175,
              0,
              0.015
            ],
            "direction": [
              0,
              1,
              -0
            ]
          }
        },
        {
          "type": "line",
          "line": {
            "origin": [
              -0.0125,
              0,
              -0.015
            ],
            "direction": [
              0,
              1,
              -0
            ]
          }
        },
        {
          "type": "line",
          "line": {
            "origin": [
              -0.0175,
              0,
              -0.015
            ],
            "direction": [
              0,
              1,
              -0
            ]
          }
        },
        {
          "type": "line",
          "line": {
            "origin": [
              0.0175,
              0,
              0.015
            ],
            "direction": [
              0,
              1,
              -0
            ]
          }
        },
        {
          "type": "line",
          "line": {
            "origin": [
              0.0125,
              0,
              0.015
            ],
            "direction": [
              0,
              1,
              -0
            ]
          }
        },
        {
          "type": "line",
          "line": {
            "origin": [
              0.0175,
              0,
              -0.015
            ],
            "direction": [
              0,
              1,
              -0
            ]
          }
        },
        {
          "type": "line",
          "line": {
            "origin": [
              0.0125,
              0,
              -0.015
            ],
            "direction": [
              0,
              1,
              -0
            ]
          }
        }
      ]
    }
  },
  "extensionsUsed": [
    "KITTYCAD_boundary_representation"
  ],
  "materials": [
    {
      "alphaMode": "OPAQUE",
      "doubleSided": false,
      "pbrMetallicRoughness": {
        "baseColorFactor": [
          0.72156864,
          0.7411765,
          0.7647059,
          1
        ],
        "metallicFactor": 1,
        "roughnessFactor": 1
      },
      "emissiveFactor": [
        0,
        0,
        0
      ]
    }
  ],
  "meshes": [
    {
      "primitives": [
        {
          "attributes": {
            "POSITION": 0,
            "NORMAL": 1
          },
          "material": 0
        },
        {
          "attributes": {
            "POSITION": 2,
            "NORMAL": 3
          },
          "material": 0
        },
        {
          "attributes": {
            "POSITION": 4,
            "NORMAL": 5
          },
          "material": 0
        },
        {
          "attributes": {
            "POSITION": 6,
            "NORMAL": 7
          },
          "material": 0
        },
        {
          "attributes": {
            "POSITION": 8,
            "NORMAL": 9
          },
          "material": 0
        },
        {
          "attributes": {
            "POSITION": 10,
            "NORMAL": 11
          },
          "material": 0
        },
        {
          "attributes": {
            "POSITION": 12,
            "NORMAL": 13
          },
          "material": 0
        },
        {
          "attributes": {
            "POSITION": 14,
            "NORMAL": 15
          },
          "material": 0
        },
        {
          "attributes": {
            "POSITION": 16,
            "NORMAL": 17
          },
          "material": 0
        },
        {
          "attributes": {
            "POSITION": 18,
            "NORMAL": 19
          },
          "material": 0
        },
        {
          "attributes": {
            "POSITION": 20,
            "NORMAL": 21
          },
          "material": 0
        },
        {
          "attributes": {
            "POSITION": 22,
            "NORMAL": 23
          },
          "material": 0
        },
        {
          "attributes": {
            "POSITION": 24,
            "NORMAL": 25
          },
          "material": 0
        },
        {
          "attributes": {
            "POSITION": 26,
            "NORMAL": 27
          },
          "material": 0
        }
      ]
    }
  ],
  "nodes": [
    {
      "children": [
        1
      ]
    },
    {
      "children": [
        2
      ]
    },
    {
      "extensions": {
        "KITTYCAD_boundary_representation": {
          "solid": 0
        }
      },
      "mesh": 0
    }
  ],
  "scenes": [
    {
      "nodes": [
        0
      ]
    }
  ]
}