solid unnamed
facet normal 1 -0 0
    outer loop
        vertex 9.85 -9.85 2.2
        vertex 9.85 -9.85 0
        vertex 9.85 9.85 2.2
    endloop
endfacet
facet normal 1 0 0
    outer loop
        vertex 9.85 9.85 2.2
        vertex 9.85 -9.85 0
        vertex 9.85 9.85 0
    endloop
endfacet
facet normal 0 1 0
    outer loop
        vertex 9.85 9.85 2.2
        vertex 9.85 9.85 0
        vertex -9.85 9.85 2.2
    endloop
endfacet
facet normal 0 1 0
    outer loop
        vertex -9.85 9.85 2.2
        vertex 9.85 9.85 0
        vertex -9.85 9.85 0
    endloop
endfacet
facet normal -1 -0 -0
    outer loop
        vertex -9.85 9.85 2.2
        vertex -9.85 9.85 0
        vertex -9.85 -9.85 2.2
    endloop
endfacet
facet normal -1 0 0
    outer loop
        vertex -9.85 -9.85 2.2
        vertex -9.85 9.85 0
        vertex -9.85 -9.85 0
    endloop
endfacet
facet normal 0 -1 0
    outer loop
        vertex -9.85 -9.85 2.2
        vertex -9.85 -9.85 0
        vertex 9.85 -9.85 2.2
    endloop
endfacet
facet normal 0 -1 -0
    outer loop
        vertex 9.85 -9.85 2.2
        vertex -9.85 -9.85 0
        vertex 9.85 -9.85 0
    endloop
endfacet
facet normal 0 0 -1
    outer loop
        vertex -9.85 -9.85 0
        vertex -9.85 9.85 0
        vertex 9.85 -9.85 0
    endloop
endfacet
facet normal 0 0 -1
    outer loop
        vertex -9.85 9.85 0
        vertex 9.85 9.85 0
        vertex 9.85 -9.85 0
    endloop
endfacet
facet normal 0.70710671 0 0.70710689
    outer loop
        vertex 9.05 9.05 3
        vertex 9.05 -9.05 3
        vertex 9.85 9.85 2.2
    endloop
endfacet
facet normal 0.70710665 0 0.70710689
    outer loop
        vertex 9.05 -9.05 3
        vertex 9.85 -9.85 2.2
        vertex 9.85 9.85 2.2
    endloop
endfacet
facet normal -0.70710671 0 0.70710689
    outer loop
        vertex -9.05 -9.05 3
        vertex -9.05 9.05 3
        vertex -9.85 -9.85 2.2
    endloop
endfacet
facet normal -0.70710665 0 0.70710689
    outer loop
        vertex -9.85 -9.85 2.2
        vertex -9.05 9.05 3
        vertex -9.85 9.85 2.2
    endloop
endfacet
facet normal 0 0 1
    outer loop
        vertex 9.05 9.05 3
        vertex -9.05 9.05 3
        vertex 9.05 -9.05 3
    endloop
endfacet
facet normal 0 0 1
    outer loop
        vertex 9.05 -9.05 3
        vertex -9.05 9.05 3
        vertex -9.05 -9.05 3
    endloop
endfacet
facet normal -0 0.70710671 0.70710689
    outer loop
        vertex -9.05 9.05 3
        vertex 9.05 9.05 3
        vertex -9.85 9.85 2.2
    endloop
endfacet
facet normal 0 0.70710665 0.70710689
    outer loop
        vertex 9.05 9.05 3
        vertex 9.85 9.85 2.2
        vertex -9.85 9.85 2.2
    endloop
endfacet
facet normal 0 -0.70710671 0.70710689
    outer loop
        vertex 9.05 -9.05 3
        vertex -9.05 -9.05 3
        vertex 9.85 -9.85 2.2
    endloop
endfacet
facet normal 0 -0.70710665 0.70710689
    outer loop
        vertex -9.05 -9.05 3
        vertex -9.85 -9.85 2.2
        vertex 9.85 -9.85 2.2
    endloop
endfacet
endsolid unnamed
