solid unnamed
facet normal 1 -0 0
    outer loop
        vertex 17 -12 2
        vertex 17 -12 0
        vertex 17 12 2
    endloop
endfacet
facet normal 1 0 0
    outer loop
        vertex 17 12 2
        vertex 17 -12 0
        vertex 17 12 0
    endloop
endfacet
facet normal 0 1 0
    outer loop
        vertex 17 12 2
        vertex 17 12 0
        vertex -17 12 2
    endloop
endfacet
facet normal 0 1 0
    outer loop
        vertex -17 12 2
        vertex 17 12 0
        vertex -17 12 0
    endloop
endfacet
facet normal -1 -0 -0
    outer loop
        vertex -17 12 2
        vertex -17 12 0
        vertex -17 -12 2
    endloop
endfacet
facet normal -1 0 0
    outer loop
        vertex -17 -12 2
        vertex -17 12 0
        vertex -17 -12 0
    endloop
endfacet
facet normal 0 -1 0
    outer loop
        vertex -17 -12 2
        vertex -17 -12 0
        vertex 17 -12 2
    endloop
endfacet
facet normal 0 -1 -0
    outer loop
        vertex 17 -12 2
        vertex -17 -12 0
        vertex 17 -12 0
    endloop
endfacet
facet normal 0 0 -1
    outer loop
        vertex -17 -12 0
        vertex -17 12 0
        vertex 17 -12 0
    endloop
endfacet
facet normal 0 0 -1
    outer loop
        vertex -17 12 0
        vertex 17 12 0
        vertex 17 -12 0
    endloop
endfacet
facet normal 0 -1 0
    outer loop
        vertex -14.85 -9.85 2
        vertex 14.85 -9.85 2
        vertex -14.85 -9.85 4.2
    endloop
endfacet
facet normal 0 -1 0
    outer loop
        vertex -14.85 -9.85 4.2
        vertex 14.85 -9.85 2
        vertex 14.85 -9.85 4.2
    endloop
endfacet
facet normal -1 0 0
    outer loop
        vertex -14.85 9.85 2
        vertex -14.85 -9.85 2
        vertex -14.85 9.85 4.2
    endloop
endfacet
facet normal -1 -0 0
    outer loop
        vertex -14.85 9.85 4.2
        vertex -14.85 -9.85 2
        vertex -14.85 -9.85 4.2
    endloop
endfacet
facet normal 0 1 -0
    outer loop
        vertex 14.85 9.85 2
        vertex -14.85 9.85 2
        vertex 14.85 9.85 4.2
    endloop
endfacet
facet normal 0 1 0
    outer loop
        vertex 14.85 9.85 4.2
        vertex -14.85 9.85 2
        vertex -14.85 9.85 4.2
    endloop
endfacet
facet normal 1 0 0
    outer loop
        vertex 14.85 -9.85 2
        vertex 14.85 9.85 2
        vertex 14.85 -9.85 4.2
    endloop
endfacet
facet normal 1 -0 0
    outer loop
        vertex 14.85 -9.85 4.2
        vertex 14.85 9.85 2
        vertex 14.85 9.85 4.2
    endloop
endfacet
facet normal 0 -0 1
    outer loop
        vertex -14.85 9.85 2
        vertex 14.85 9.85 2
        vertex -17 12 2
    endloop
endfacet
facet normal 0 0 1
    outer loop
        vertex -14.85 -9.85 2
        vertex -17 12 2
        vertex -17 -12 2
    endloop
endfacet
facet normal 0 -0 1
    outer loop
        vertex -14.85 -9.85 2
        vertex -14.85 9.85 2
        vertex -17 12 2
    endloop
endfacet
facet normal 0 0 1
    outer loop
        vertex 14.85 -9.85 2
        vertex -17 -12 2
        vertex 17 -12 2
    endloop
endfacet
facet normal 0 0 1
    outer loop
        vertex 14.85 -9.85 2
        vertex -14.85 -9.85 2
        vertex -17 -12 2
    endloop
endfacet
facet normal 0 -0 1
    outer loop
        vertex 14.85 9.85 2
        vertex 17 12 2
        vertex -17 12 2
    endloop
endfacet
facet normal -0 0 1
    outer loop
        vertex 14.85 -9.85 2
        vertex 17 -12 2
        vertex 14.85 9.85 2
    endloop
endfacet
facet normal -0 0 1
    outer loop
        vertex 14.85 9.85 2
        vertex 17 -12 2
        vertex 17 12 2
    endloop
endfacet
facet normal 0.70710677 0 0.70710677
    outer loop
        vertex 14.05 9.05 5
        vertex 14.05 -9.05 5
        vertex 14.85 9.85 4.2
    endloop
endfacet
facet normal 0.70710677 0 0.70710677
    outer loop
        vertex 14.85 9.85 4.2
        vertex 14.05 -9.05 5
        vertex 14.85 -9.85 4.2
    endloop
endfacet
facet normal -0.70710677 0 0.70710677
    outer loop
        vertex -14.05 -9.05 5
        vertex -14.05 9.05 5
        vertex -14.85 -9.85 4.2
    endloop
endfacet
facet normal -0.70710677 0 0.70710677
    outer loop
        vertex -14.05 9.05 5
        vertex -14.85 9.85 4.2
        vertex -14.85 -9.85 4.2
    endloop
endfacet
facet normal -0 0.70710677 0.70710677
    outer loop
        vertex -14.05 9.05 5
        vertex 14.05 9.05 5
        vertex -14.85 9.85 4.2
    endloop
endfacet
facet normal 0 0.70710677 0.70710677
    outer loop
        vertex 14.05 9.05 5
        vertex 14.85 9.85 4.2
        vertex -14.85 9.85 4.2
    endloop
endfacet
facet normal 0 0 1
    outer loop
        vertex -14.05 -9.05 5
        vertex 14.05 -9.05 5
        vertex -14.05 9.05 5
    endloop
endfacet
facet normal -0 0 1
    outer loop
        vertex -14.05 9.05 5
        vertex 14.05 -9.05 5
        vertex 14.05 9.05 5
    endloop
endfacet
facet normal 0 -0.70710677 0.70710677
    outer loop
        vertex 14.05 -9.05 5
        vertex -14.05 -9.05 5
        vertex 14.85 -9.85 4.2
    endloop
endfacet
facet normal 0 -0.70710677 0.70710677
    outer loop
        vertex -14.05 -9.05 5
        vertex -14.85 -9.85 4.2
        vertex 14.85 -9.85 4.2
    endloop
endfacet
endsolid unnamed
