solid unnamed
facet normal 1 -0 0
    outer loop
        vertex 30 -20 3
        vertex 30 -20 0
        vertex 30 20 3
    endloop
endfacet
facet normal 1 0 0
    outer loop
        vertex 30 20 3
        vertex 30 -20 0
        vertex 30 20 0
    endloop
endfacet
facet normal 0 1 0
    outer loop
        vertex 30 20 3
        vertex 30 20 0
        vertex -30 20 3
    endloop
endfacet
facet normal 0 1 0
    outer loop
        vertex -30 20 3
        vertex 30 20 0
        vertex -30 20 0
    endloop
endfacet
facet normal -1 -0 -0
    outer loop
        vertex -30 20 3
        vertex -30 20 0
        vertex -30 -20 3
    endloop
endfacet
facet normal -1 0 0
    outer loop
        vertex -30 -20 3
        vertex -30 20 0
        vertex -30 -20 0
    endloop
endfacet
facet normal 0 -1 0
    outer loop
        vertex -30 -20 3
        vertex -30 -20 0
        vertex 30 -20 3
    endloop
endfacet
facet normal 0 -1 -0
    outer loop
        vertex 30 -20 3
        vertex -30 -20 0
        vertex 30 -20 0
    endloop
endfacet
facet normal -0 -0 -1
    outer loop
        vertex -15 10 0
        vertex -15 -10 0
        vertex -30 20 0
    endloop
endfacet
facet normal -0 0 -1
    outer loop
        vertex -15 -10 0
        vertex -30 -20 0
        vertex -30 20 0
    endloop
endfacet
facet normal 0 -0 -1
    outer loop
        vertex -15 -10 0
        vertex 15 -10 0
        vertex -30 -20 0
    endloop
endfacet
facet normal 0 -0 -1
    outer loop
        vertex 15 -10 0
        vertex 30 -20 0
        vertex -30 -20 0
    endloop
endfacet
facet normal 0 0 -1
    outer loop
        vertex 15 10 0
        vertex 30 20 0
        vertex 30 -20 0
    endloop
endfacet
facet normal 0 0 -1
    outer loop
        vertex 15 10 0
        vertex -15 10 0
        vertex -30 20 0
    endloop
endfacet
facet normal 0 0 -1
    outer loop
        vertex 15 -10 0
        vertex 15 10 0
        vertex 30 -20 0
    endloop
endfacet
facet normal 0 0 -1
    outer loop
        vertex -30 20 0
        vertex 30 20 0
        vertex 15 10 0
    endloop
endfacet
facet normal -0 0 1
    outer loop
        vertex 15.799999 10.8 3
        vertex 15.799999 -10.8 3
        vertex 30 20 3
    endloop
endfacet
facet normal 0 -0 1
    outer loop
        vertex -15.799999 10.8 3
        vertex 30 20 3
        vertex -30 20 3
    endloop
endfacet
facet normal 0 0 1
    outer loop
        vertex -15.799999 10.8 3
        vertex 15.799999 10.8 3
        vertex 30 20 3
    endloop
endfacet
facet normal 0 0 1
    outer loop
        vertex -15.799999 -10.8 3
        vertex -30 20 3
        vertex -30 -20 3
    endloop
endfacet
facet normal 0 0 1
    outer loop
        vertex 15.799999 -10.8 3
        vertex -30 -20 3
        vertex 30 -20 3
    endloop
endfacet
facet normal 0 0 1
    outer loop
        vertex 15.799999 -10.8 3
        vertex -15.799999 -10.8 3
        vertex -30 -20 3
    endloop
endfacet
facet normal -0 0 1
    outer loop
        vertex 15.799999 -10.8 3
        vertex 30 -20 3
        vertex 30 20 3
    endloop
endfacet
facet normal 0 0 1
    outer loop
        vertex -30 20 3
        vertex -15.799999 -10.8 3
        vertex -15.799999 10.8 3
    endloop
endfacet
facet normal 0 1 0
    outer loop
        vertex -15 -10 0
        vertex -15 -10 2.2
        vertex 15 -10 0
    endloop
endfacet
facet normal -0 1 0
    outer loop
        vertex -15 -10 2.2
        vertex 15 -10 2.2
        vertex 15 -10 0
    endloop
endfacet
facet normal 1 0 -0
    outer loop
        vertex -15 10 0
        vertex -15 10 2.2
        vertex -15 -10 0
    endloop
endfacet
facet normal 1 0 0
    outer loop
        vertex -15 10 2.2
        vertex -15 -10 2.2
        vertex -15 -10 0
    endloop
endfacet
facet normal 0 -1 0
    outer loop
        vertex 15 10 0
        vertex 15 10 2.2
        vertex -15 10 0
    endloop
endfacet
facet normal -0 -1 0
    outer loop
        vertex 15 10 2.2
        vertex -15 10 2.2
        vertex -15 10 0
    endloop
endfacet
facet normal -1 0 0
    outer loop
        vertex 15 -10 0
        vertex 15 -10 2.2
        vertex 15 10 0
    endloop
endfacet
facet normal -1 0 0
    outer loop
        vertex 15 -10 2.2
        vertex 15 10 2.2
        vertex 15 10 0
    endloop
endfacet
facet normal -0 0.70710671 0.70710689
    outer loop
        vertex -15 -10 2.2
        vertex -15.799999 -10.8 3
        vertex 15 -10 2.2
    endloop
endfacet
facet normal -0 0.70710671 0.70710689
    outer loop
        vertex -15.799999 -10.8 3
        vertex 15.799999 -10.8 3
        vertex 15 -10 2.2
    endloop
endfacet
facet normal 0.70710707 0 0.70710647
    outer loop
        vertex -15 10 2.2
        vertex -15.799999 10.8 3
        vertex -15 -10 2.2
    endloop
endfacet
facet normal 0.70710707 0 0.70710647
    outer loop
        vertex -15.799999 10.8 3
        vertex -15.799999 -10.8 3
        vertex -15 -10 2.2
    endloop
endfacet
facet normal 0 -0.70710671 0.70710689
    outer loop
        vertex 15 10 2.2
        vertex 15.799999 10.8 3
        vertex -15 10 2.2
    endloop
endfacet
facet normal 0 -0.70710671 0.70710689
    outer loop
        vertex 15.799999 10.8 3
        vertex -15.799999 10.8 3
        vertex -15 10 2.2
    endloop
endfacet
facet normal -0.70710707 0 0.70710647
    outer loop
        vertex 15 -10 2.2
        vertex 15.799999 -10.8 3
        vertex 15 10 2.2
    endloop
endfacet
facet normal -0.70710707 0 0.70710647
    outer loop
        vertex 15.799999 -10.8 3
        vertex 15.799999 10.8 3
        vertex 15 10 2.2
    endloop
endfacet
endsolid unnamed
